<?xml version="1.0" standalone="no"?>
<!DOCTYPE svg PUBLIC "-//W3C//DTD SVG 20010904//EN"
 "http://www.w3.org/TR/2001/REC-SVG-20010904/DTD/svg10.dtd">
<svg version="1.0" xmlns="http://www.w3.org/2000/svg"
 width="500.000000pt" height="500.000000pt" viewBox="0 0 500.000000 500.000000"
 preserveAspectRatio="xMidYMid meet">
<metadata>
Created by potrace 1.14, written by Peter Selinger 2001-2017
</metadata>
<g transform="translate(0.000000,500.000000) scale(0.100000,-0.100000)"
fill="#000000" stroke="none">
<path d="M2455 4689 c-61 -11 -90 -25 -132 -63 -49 -44 -81 -108 -86 -171 l-3
-50 -105 -61 c-57 -34 -297 -173 -534 -309 -236 -136 -495 -286 -575 -332
l-145 -85 -40 15 c-57 20 -118 14 -164 -16 -96 -63 -99 -215 -5 -279 l34 -23
0 -790 0 -790 -35 -19 c-72 -39 -118 -128 -116 -224 4 -191 198 -311 369 -229
l49 24 424 -245 c233 -134 498 -288 589 -340 91 -53 197 -114 237 -136 66 -37
72 -43 78 -80 16 -105 97 -176 200 -176 110 0 186 60 206 164 l11 54 241 138
c132 77 256 148 276 159 52 30 163 94 181 105 8 5 53 31 100 58 47 26 184 105
305 175 l220 127 50 -25 c67 -32 170 -30 230 5 169 100 184 326 30 442 l-50
38 0 784 0 784 27 18 c102 69 88 235 -25 292 -52 26 -79 27 -136 7 l-42 -15
-377 218 c-207 120 -420 243 -472 272 -52 30 -97 57 -100 60 -3 3 -14 10 -26
15 -11 6 -103 57 -202 115 -162 93 -182 108 -182 131 0 39 -26 117 -51 153
-52 76 -162 121 -254 105z m122 -130 c68 -43 90 -143 44 -208 -80 -111 -254
-65 -268 70 -12 119 121 201 224 138z m-289 -313 c-6 -11 -93 -163 -193 -336
-100 -173 -193 -335 -207 -360 -14 -25 -57 -99 -95 -165 -90 -154 -509 -879
-535 -925 -19 -34 -150 -260 -168 -290 -5 -8 -34 -58 -63 -110 -30 -52 -64
-111 -76 -130 -11 -19 -24 -42 -28 -50 -19 -44 -75 -120 -86 -120 -12 0 -14
128 -14 775 l0 775 33 21 c44 27 75 79 79 135 2 25 5 48 7 49 3 3 256 150 353
205 17 10 219 127 450 260 231 134 445 258 475 275 61 35 89 32 68 -9z m566
-36 c44 -26 97 -57 117 -68 19 -11 95 -54 169 -97 74 -43 150 -86 169 -97 20
-11 41 -24 46 -28 6 -4 35 -21 65 -37 30 -17 183 -105 340 -195 l285 -165 5
-49 c7 -59 31 -107 66 -131 64 -45 59 28 59 -813 -1 -696 -2 -765 -17 -768
-11 -2 -45 48 -121 180 -58 101 -202 351 -321 557 l-216 373 16 48 c35 108
-27 213 -136 227 -43 6 -46 10 -133 163 -10 19 -138 241 -284 493 -149 259
-262 465 -259 473 7 17 17 12 150 -66z m-134 -230 c64 -113 205 -357 313 -543
l195 -339 -19 -33 c-11 -18 -21 -51 -22 -74 -3 -44 -7 -49 -87 -93 -25 -14
-101 -58 -170 -98 -69 -40 -146 -84 -171 -99 -25 -14 -139 -79 -252 -145 -158
-90 -210 -116 -220 -108 -11 9 -8 45 14 199 15 103 30 211 34 239 3 29 7 60 9
70 3 17 10 68 22 149 2 17 11 80 20 140 9 61 18 126 20 145 2 19 6 49 9 65 2
17 7 53 10 80 4 28 8 57 10 65 3 8 7 35 10 60 9 77 16 123 25 180 5 30 12 78
15 105 3 28 7 59 9 70 2 11 7 48 11 82 4 34 12 67 19 72 11 9 53 19 69 17 5
-1 62 -94 127 -206z m-335 138 c-4 -28 -8 -58 -10 -67 -1 -9 -6 -38 -9 -66 -4
-27 -11 -77 -16 -110 -5 -33 -12 -80 -15 -105 -3 -25 -12 -92 -20 -150 -9 -58
-18 -123 -21 -145 -3 -22 -9 -67 -14 -100 -5 -33 -12 -80 -15 -105 -3 -25 -8
-56 -10 -70 -2 -14 -13 -95 -25 -180 -30 -220 -30 -222 -35 -250 -2 -14 -7
-45 -10 -70 -4 -25 -8 -56 -10 -70 -2 -14 -6 -45 -10 -70 -10 -80 -16 -100
-30 -100 -20 0 -73 -48 -90 -80 -8 -15 -16 -45 -18 -66 -4 -38 -7 -41 -103
-95 -54 -31 -286 -165 -514 -297 -348 -202 -417 -238 -429 -227 -13 13 -12 24
9 55 10 16 135 232 178 310 13 25 28 50 32 55 4 6 19 30 32 55 14 25 49 86 78
135 29 50 60 104 70 121 10 16 95 165 190 330 190 328 224 387 575 997 132
229 241 417 243 417 2 0 0 -23 -3 -52z m898 -1293 c20 -8 54 -15 74 -15 l39 0
104 -181 c58 -100 116 -200 129 -223 13 -22 109 -189 213 -370 l190 -329 -29
-29 -30 -29 -337 136 c-185 75 -423 171 -529 214 -106 42 -315 127 -464 187
-308 123 -314 128 -225 177 26 15 72 42 103 59 31 18 137 79 235 136 98 57
186 108 194 113 18 12 294 169 296 169 1 0 18 -7 37 -15z m-715 -741 c130 -53
433 -175 672 -271 239 -97 489 -198 555 -224 l120 -49 -1427 0 c-1416 0 -1428
0 -1428 20 0 12 14 27 38 40 20 11 53 30 72 41 36 22 270 158 325 189 17 10
155 90 308 178 l278 160 39 -19 c53 -26 108 -24 161 5 24 14 45 25 47 25 2 1
110 -42 240 -95z m-1671 -472 c73 -47 74 -182 2 -233 -44 -31 -126 -36 -167
-10 -68 44 -91 126 -53 199 40 78 137 98 218 44z m3363 18 c48 -24 70 -56 77
-108 13 -95 -48 -166 -142 -166 -65 -1 -100 21 -132 82 -32 64 -14 139 44 180
55 38 96 41 153 12z m-309 -227 c14 -14 88 30 -681 -413 l-605 -349 -25 24
c-76 73 -206 71 -287 -5 l-21 -19 -434 250 c-238 138 -455 264 -483 279 -266
150 -373 217 -365 230 7 13 201 15 1449 15 1098 0 1443 -3 1452 -12z"/>
</g>
</svg>
